<svg width="14" height="99" viewBox="0 0 14 99" fill="none" xmlns="http://www.w3.org/2000/svg">
<path opacity="0.2" d="M13.1369 0.320312H0.0795898V3.17155H13.1369V0.320312Z" fill="#0500E0"/>
<path opacity="0.2533" d="M13.1369 6.6709H0.0795898V9.52214H13.1369V6.6709Z" fill="#1611E2"/>
<path opacity="0.3067" d="M13.1369 13.0537H0.0795898V15.905H13.1369V13.0537Z" fill="#2622E4"/>
<path opacity="0.36" d="M13.1369 19.4043H0.0795898V22.2555H13.1369V19.4043Z" fill="#3733E6"/>
<path opacity="0.4133" d="M13.1369 25.7544H0.0795898V28.6056H13.1369V25.7544Z" fill="#4844E8"/>
<path opacity="0.4667" d="M13.1369 32.1372H0.0795898V34.9884H13.1369V32.1372Z" fill="#5855EA"/>
<path opacity="0.52" d="M13.1369 38.4878H0.0795898V41.339H13.1369V38.4878Z" fill="#6966EC"/>
<path opacity="0.5733" d="M13.1369 44.8706H0.0795898V47.7218H13.1369V44.8706Z" fill="#7A77EE"/>
<path opacity="0.6267" d="M13.1369 51.2212H0.0795898V54.0724H13.1369V51.2212Z" fill="#8A88F1"/>
<path opacity="0.68" d="M13.1369 57.604H0.0795898V60.4552H13.1369V57.604Z" fill="#9B99F3"/>
<path opacity="0.7333" d="M13.1369 63.9546H0.0795898V66.8058H13.1369V63.9546Z" fill="#ACAAF5"/>
<path opacity="0.7867" d="M13.1369 70.3047H0.0795898V73.1559H13.1369V70.3047Z" fill="#BCBBF7"/>
<path opacity="0.84" d="M13.1369 76.6875H0.0795898V79.5387H13.1369V76.6875Z" fill="#CDCCF9"/>
<path opacity="0.8933" d="M13.1369 83.0381H0.0795898V85.8893H13.1369V83.0381Z" fill="#DEDDFB"/>
<path opacity="0.9467" d="M13.1369 89.4209H0.0795898V92.2721H13.1369V89.4209Z" fill="#EEEEFD"/>
<path d="M13.1369 95.7715H0.0795898V98.6227H13.1369V95.7715Z" fill="white"/>
</svg>
